<?xml version="1.0" encoding="UTF-8"?>
<!DOCTYPE svg PUBLIC "-//W3C//DTD SVG 1.1//EN" "http://www.w3.org/Graphics/SVG/1.1/DTD/svg11.dtd">
<!-- Creator: CorelDRAW X8 -->
<svg xmlns="http://www.w3.org/2000/svg" xml:space="preserve" width="84.1586mm" height="33.3586mm" version="1.1" style="shape-rendering:geometricPrecision; text-rendering:geometricPrecision; image-rendering:optimizeQuality; fill-rule:evenodd; clip-rule:evenodd"
viewBox="0 0 8416 3336"
 xmlns:xlink="http://www.w3.org/1999/xlink">
 <defs>
  <style type="text/css">
   <![CDATA[
    .str0 {stroke:#FBE300;stroke-width:7.62}
    .fil0 {fill:none}
    .fil4 {fill:#3D0066}
    .fil3 {fill:#FBE300}
    .fil1 {fill:#3D0066;fill-rule:nonzero}
    .fil2 {fill:#FBE300;fill-rule:nonzero}
   ]]>
  </style>
 </defs>
 <g id="Layer_x0020_1">
  <metadata id="CorelCorpID_0Corel-Layer"/>
  <rect class="fil0" width="8416" height="3336"/>
  <g id="_556892800">
   <path class="fil1" d="M1006 2906c-17,0 -32,-2 -46,-8 -14,-5 -26,-13 -37,-22 -10,-10 -18,-22 -23,-35 -6,-13 -9,-27 -9,-43 0,-15 3,-30 9,-43 5,-13 13,-25 24,-34 10,-10 22,-18 36,-23 14,-6 29,-8 46,-8 16,0 31,2 45,8 14,5 26,13 37,22 10,10 18,22 24,35 5,13 8,27 8,43 0,16 -3,30 -8,43 -6,14 -14,25 -24,35 -11,9 -23,17 -37,22 -14,6 -29,8 -45,8zm68 45c-8,0 -16,-1 -23,-3 -7,-1 -14,-4 -22,-8 -7,-4 -14,-10 -22,-16 -7,-7 -16,-16 -25,-26l51 -12c6,7 11,13 15,17 5,5 9,8 13,9 5,2 9,3 14,3 13,0 24,-5 34,-15l22 25c-14,17 -33,26 -57,26zm-68 -86c9,0 18,-1 26,-5 7,-3 14,-7 20,-13 6,-6 11,-14 14,-22 4,-8 5,-17 5,-27 0,-10 -1,-19 -5,-27 -3,-8 -8,-15 -14,-21 -6,-6 -13,-11 -20,-14 -8,-3 -17,-5 -26,-5 -10,0 -18,2 -26,5 -8,3 -15,8 -21,14 -6,6 -11,13 -14,21 -3,8 -5,17 -5,27 0,10 2,19 5,27 3,8 8,16 14,22 6,6 13,10 21,13 8,4 16,5 26,5zm215 40c-13,0 -25,-2 -35,-8 -11,-5 -19,-13 -25,-23 -5,-11 -8,-25 -8,-41l0 -91 46 0 0 84c0,13 3,23 9,29 6,7 14,10 24,10 7,0 14,-2 19,-5 6,-3 10,-8 13,-14 3,-7 5,-15 5,-25l0 -79 47 0 0 161 -45 0 0 -44 9 12c-6,12 -14,20 -24,26 -11,5 -22,8 -35,8zm237 -2l0 -32 -3 -6 0 -57c0,-10 -3,-17 -9,-23 -6,-6 -16,-8 -28,-8 -9,0 -17,1 -25,4 -9,2 -16,6 -22,11l-16 -33c8,-6 19,-11 31,-14 13,-4 25,-6 38,-6 25,0 44,6 57,18 14,11 21,29 21,54l0 92 -44 0zm-49 2c-13,0 -24,-2 -32,-6 -9,-4 -16,-10 -21,-18 -5,-7 -7,-15 -7,-25 0,-9 2,-17 7,-25 4,-7 12,-12 22,-17 10,-4 23,-6 40,-6l43 0 0 28 -38 0c-11,0 -19,1 -23,5 -4,4 -6,8 -6,13 0,6 3,11 7,15 5,3 11,5 20,5 7,0 14,-2 20,-6 7,-3 11,-9 14,-16l7 22c-3,10 -9,18 -18,23 -9,6 -21,8 -35,8zm135 -2l0 -222 47 0 0 222 -47 0zm90 0l0 -161 47 0 0 161 -47 0zm23 -184c-8,0 -15,-2 -21,-7 -5,-5 -8,-11 -8,-19 0,-7 3,-13 8,-18 6,-5 13,-8 21,-8 9,0 16,3 21,7 6,5 8,11 8,18 0,8 -2,15 -8,20 -5,5 -12,7 -21,7zm133 186c-19,0 -34,-5 -44,-14 -11,-10 -16,-24 -16,-44l0 -141 46 0 0 141c0,7 2,12 6,16 3,3 8,5 14,5 8,0 14,-2 19,-6l13 33c-5,3 -11,6 -17,8 -7,1 -14,2 -21,2zm-85 -124l0 -36 112 0 0 36 -112 0zm167 182c-9,0 -17,-1 -25,-4 -8,-2 -15,-6 -20,-10l17 -34c3,4 8,6 12,8 5,2 10,3 14,3 7,0 12,-2 16,-5 4,-3 7,-8 10,-15l9 -20 3 -5 58 -139 45 0 -73 171c-5,13 -11,23 -17,30 -7,8 -15,13 -23,16 -8,3 -17,4 -26,4zm27 -54l-72 -167 49 0 55 135 -32 32zm219 -6l0 -210 49 0 0 210 -49 0zm193 -164c13,0 24,3 34,8 10,5 18,13 24,23 6,11 9,24 9,41l0 92 -47 0 0 -85c0,-13 -3,-23 -8,-29 -6,-6 -14,-9 -25,-9 -7,0 -14,1 -19,4 -6,4 -11,8 -14,15 -3,6 -5,14 -5,24l0 80 -47 0 0 -161 45 0 0 44 -9 -13c6,-11 14,-19 25,-25 11,-6 23,-9 37,-9zm163 166c-14,0 -27,-1 -39,-5 -13,-3 -23,-7 -31,-12l16 -34c7,5 16,9 26,12 10,3 20,4 30,4 11,0 18,-1 23,-4 4,-3 7,-6 7,-11 0,-4 -2,-6 -6,-8 -3,-2 -8,-4 -14,-5 -5,-1 -12,-2 -19,-3 -6,-1 -13,-2 -20,-4 -7,-1 -14,-4 -20,-7 -5,-4 -10,-8 -13,-14 -4,-6 -6,-13 -6,-22 0,-11 3,-20 9,-27 6,-8 15,-14 26,-19 11,-4 24,-7 40,-7 11,0 22,2 33,4 12,2 21,6 29,11l-16 33c-8,-5 -15,-8 -23,-10 -8,-1 -16,-2 -23,-2 -11,0 -18,1 -23,4 -5,3 -7,6 -7,11 0,4 2,7 5,9 4,2 8,3 14,4 6,2 12,3 19,4 7,1 14,2 21,4 7,1 13,4 19,7 6,4 10,8 14,14 3,5 5,13 5,22 0,10 -3,19 -9,27 -6,7 -14,13 -26,18 -11,4 -25,6 -41,6zm200 0c-13,0 -25,-3 -35,-9 -11,-6 -19,-15 -24,-27 -6,-12 -9,-28 -9,-47 0,-19 3,-34 8,-46 6,-13 13,-22 24,-28 10,-6 22,-9 36,-9 15,0 29,4 41,11 12,7 22,16 29,29 7,12 10,27 10,43 0,17 -3,32 -10,44 -7,13 -17,22 -29,29 -12,7 -26,10 -41,10zm-95 56l0 -219 45 0 0 33 -1 48 3 47 0 91 -47 0zm87 -94c8,0 15,-2 21,-5 6,-4 11,-9 15,-16 3,-7 5,-14 5,-24 0,-9 -2,-17 -5,-24 -4,-6 -9,-11 -15,-15 -6,-3 -13,-5 -21,-5 -8,0 -15,2 -21,5 -6,4 -11,9 -15,15 -3,7 -5,15 -5,24 0,10 2,17 5,24 4,7 9,12 15,16 6,3 13,5 21,5zm199 38c-18,0 -34,-3 -48,-11 -14,-7 -25,-17 -32,-29 -8,-12 -11,-27 -11,-43 0,-16 3,-30 11,-43 7,-12 17,-22 30,-29 13,-7 28,-11 44,-11 16,0 30,4 43,10 13,7 23,17 30,29 8,13 11,28 11,45 0,2 0,4 0,6 0,2 0,5 -1,7l-130 0 0 -28 106 0 -18 8c0,-8 -2,-15 -5,-21 -4,-7 -8,-12 -14,-15 -6,-3 -13,-5 -21,-5 -8,0 -15,2 -21,5 -6,3 -11,8 -15,15 -3,6 -5,13 -5,22l0 7c0,9 2,17 6,23 4,7 10,12 17,16 7,3 15,5 25,5 8,0 16,-1 22,-4 7,-3 13,-7 18,-12l25 27c-8,9 -17,15 -28,20 -11,4 -24,6 -39,6zm187 0c-17,0 -33,-3 -46,-10 -14,-7 -24,-17 -32,-30 -8,-12 -12,-27 -12,-43 0,-16 4,-30 12,-43 8,-12 18,-22 32,-29 13,-7 29,-11 46,-11 17,0 32,4 45,11 12,7 21,17 27,30l-36 20c-4,-8 -9,-13 -16,-17 -6,-3 -13,-5 -20,-5 -8,0 -15,2 -22,5 -6,4 -11,9 -15,15 -3,7 -5,15 -5,24 0,10 2,18 5,24 4,7 9,12 15,16 7,3 14,5 22,5 7,0 14,-2 20,-5 7,-4 12,-9 16,-17l36 20c-6,13 -15,23 -27,30 -13,7 -28,10 -45,10zm168 0c-19,0 -34,-5 -45,-14 -10,-10 -16,-24 -16,-44l0 -141 47 0 0 141c0,7 2,12 5,16 4,3 9,5 15,5 8,0 14,-2 19,-6l13 33c-5,3 -11,6 -18,8 -6,1 -13,2 -20,2zm-85 -124l0 -36 111 0 0 36 -111 0zm149 122l0 -161 47 0 0 161 -47 0zm23 -184c-8,0 -15,-2 -21,-7 -5,-5 -8,-11 -8,-19 0,-7 3,-13 8,-18 6,-5 13,-8 21,-8 9,0 16,3 21,7 6,5 8,11 8,18 0,8 -2,15 -8,20 -5,5 -12,7 -21,7zm144 186c-18,0 -33,-3 -46,-11 -13,-7 -24,-17 -31,-29 -8,-12 -12,-27 -12,-43 0,-16 4,-30 12,-43 7,-12 18,-22 31,-29 13,-7 28,-11 46,-11 17,0 32,4 45,11 13,7 24,17 32,29 7,13 11,27 11,43 0,16 -4,31 -11,43 -8,12 -19,22 -32,29 -13,8 -28,11 -45,11zm0 -38c7,0 14,-2 21,-5 6,-4 11,-9 14,-16 4,-7 6,-14 6,-24 0,-9 -2,-17 -6,-24 -3,-6 -8,-11 -14,-15 -7,-3 -14,-5 -21,-5 -8,0 -15,2 -21,5 -7,4 -11,9 -15,15 -4,7 -6,15 -6,24 0,10 2,17 6,24 4,7 8,12 15,16 6,3 13,5 21,5zm217 -128c13,0 24,3 34,8 10,5 18,13 24,23 6,11 9,24 9,41l0 92 -47 0 0 -85c0,-13 -3,-23 -9,-29 -5,-6 -13,-9 -24,-9 -7,0 -14,1 -20,4 -5,4 -10,8 -13,15 -4,6 -5,14 -5,24l0 80 -47 0 0 -161 45 0 0 44 -9 -13c6,-11 14,-19 25,-25 11,-6 23,-9 37,-9zm292 164l0 -32 -3 -6 0 -57c0,-10 -3,-17 -9,-23 -6,-6 -15,-8 -28,-8 -8,0 -17,1 -25,4 -8,2 -15,6 -21,11l-17 -33c9,-6 19,-11 32,-14 12,-4 25,-6 38,-6 24,0 43,6 57,18 13,11 20,29 20,54l0 92 -44 0zm-49 2c-12,0 -23,-2 -32,-6 -9,-4 -16,-10 -21,-18 -4,-7 -7,-15 -7,-25 0,-9 2,-17 7,-25 5,-7 12,-12 22,-17 11,-4 24,-6 40,-6l43 0 0 28 -38 0c-11,0 -18,1 -22,5 -4,4 -6,8 -6,13 0,6 2,11 7,15 4,3 11,5 19,5 8,0 15,-2 21,-6 6,-3 11,-9 13,-16l8 22c-4,10 -10,18 -19,23 -9,6 -21,8 -35,8zm233 -166c13,0 24,3 34,8 11,5 18,13 24,23 6,11 9,24 9,41l0 92 -47 0 0 -85c0,-13 -3,-23 -8,-29 -6,-6 -14,-9 -24,-9 -8,0 -14,1 -20,4 -6,4 -11,8 -14,15 -3,6 -5,14 -5,24l0 80 -47 0 0 -161 45 0 0 44 -8 -13c5,-11 14,-19 24,-25 11,-6 23,-9 37,-9zm179 166c-15,0 -28,-3 -41,-10 -12,-7 -21,-17 -28,-29 -7,-12 -11,-27 -11,-44 0,-17 4,-31 11,-44 7,-12 16,-22 28,-28 13,-7 26,-11 41,-11 14,0 26,3 36,9 10,6 18,15 24,28 5,12 8,27 8,46 0,19 -3,35 -8,47 -5,12 -13,21 -23,27 -10,6 -22,9 -37,9zm9 -38c7,0 14,-2 20,-5 6,-4 11,-9 15,-16 4,-7 6,-14 6,-24 0,-9 -2,-17 -6,-24 -4,-6 -9,-11 -15,-15 -6,-3 -13,-5 -20,-5 -8,0 -15,2 -21,5 -7,4 -12,9 -15,15 -4,7 -6,15 -6,24 0,10 2,17 6,24 3,7 8,12 15,16 6,3 13,5 21,5zm42 36l0 -33 1 -48 -3 -48 0 -93 46 0 0 222 -44 0zm175 0l0 -210 91 0c19,0 35,3 49,9 13,7 24,15 31,27 7,11 11,25 11,40 0,16 -4,29 -11,41 -7,11 -18,20 -31,26 -14,6 -30,9 -49,9l-64 0 22 -22 0 80 -49 0zm49 -74l-22 -23 61 0c15,0 27,-4 34,-10 7,-6 11,-15 11,-27 0,-11 -4,-20 -11,-27 -7,-6 -19,-9 -34,-9l-61 0 22 -23 0 119zm164 74l0 -161 45 0 0 45 -6 -13c4,-11 12,-20 23,-26 10,-6 23,-9 38,-9l0 44c-2,-1 -4,-1 -5,-1 -2,0 -3,0 -5,0 -13,0 -23,4 -31,11 -8,7 -12,18 -12,34l0 76 -47 0zm203 2c-17,0 -32,-3 -45,-11 -14,-7 -24,-17 -32,-29 -8,-12 -11,-27 -11,-43 0,-16 3,-30 11,-43 8,-12 18,-22 32,-29 13,-7 28,-11 45,-11 17,0 32,4 46,11 13,7 24,17 31,29 8,13 12,27 12,43 0,16 -4,31 -12,43 -7,12 -18,22 -31,29 -14,8 -29,11 -46,11zm0 -38c8,0 15,-2 21,-5 6,-4 11,-9 15,-16 3,-7 5,-14 5,-24 0,-9 -2,-17 -5,-24 -4,-6 -9,-11 -15,-15 -6,-3 -13,-5 -21,-5 -8,0 -15,2 -21,5 -6,4 -11,9 -15,15 -3,7 -5,15 -5,24 0,10 2,17 5,24 4,7 9,12 15,16 6,3 13,5 21,5zm108 96c-7,0 -14,0 -21,-2 -7,-1 -12,-4 -17,-7l13 -33c5,3 12,5 20,5 5,0 10,-2 14,-6 3,-4 5,-9 5,-17l0 -161 46 0 0 161c0,18 -5,33 -15,44 -11,11 -26,16 -45,16zm37 -244c-8,0 -15,-2 -21,-7 -5,-5 -8,-11 -8,-19 0,-7 3,-13 8,-18 6,-5 13,-8 21,-8 9,0 16,3 21,7 5,5 8,11 8,18 0,8 -2,15 -8,20 -5,5 -12,7 -21,7zm147 186c-19,0 -35,-3 -49,-11 -14,-7 -24,-17 -32,-29 -8,-12 -11,-27 -11,-43 0,-16 3,-30 11,-43 7,-12 18,-22 31,-29 13,-7 27,-11 44,-11 15,0 30,4 42,10 13,7 23,17 30,29 8,13 11,28 11,45 0,2 0,4 0,6 0,2 0,5 -1,7l-130 0 0 -28 106 0 -18 8c0,-8 -2,-15 -5,-21 -4,-7 -8,-12 -14,-15 -6,-3 -13,-5 -21,-5 -8,0 -15,2 -21,5 -6,3 -11,8 -14,15 -4,6 -6,13 -6,22l0 7c0,9 2,17 6,23 4,7 10,12 17,16 7,3 15,5 25,5 8,0 16,-1 22,-4 7,-3 13,-7 18,-12l25 27c-7,9 -17,15 -28,20 -11,4 -24,6 -38,6zm186 0c-17,0 -33,-3 -46,-10 -14,-7 -24,-17 -32,-30 -8,-12 -11,-27 -11,-43 0,-16 3,-30 11,-43 8,-12 18,-22 32,-29 13,-7 29,-11 46,-11 17,0 32,4 45,11 12,7 21,17 27,30l-36 20c-4,-8 -9,-13 -15,-17 -7,-3 -14,-5 -21,-5 -8,0 -15,2 -22,5 -6,4 -11,9 -15,15 -3,7 -5,15 -5,24 0,10 2,18 5,24 4,7 9,12 15,16 7,3 14,5 22,5 7,0 14,-2 21,-5 6,-4 11,-9 15,-17l36 20c-6,13 -15,23 -27,30 -13,7 -28,10 -45,10zm168 0c-19,0 -34,-5 -45,-14 -10,-10 -16,-24 -16,-44l0 -141 47 0 0 141c0,7 2,12 6,16 3,3 8,5 14,5 8,0 14,-2 19,-6l13 33c-5,3 -11,6 -18,8 -6,1 -13,2 -20,2zm-85 -124l0 -36 111 0 0 36 -111 0zm209 122l94 -210 48 0 93 210 -50 0 -77 -185 19 0 -77 185 -50 0zm47 -45l13 -37 108 0 13 37 -134 0zm302 47c-13,0 -25,-3 -35,-9 -11,-6 -19,-15 -24,-27 -6,-12 -9,-28 -9,-47 0,-19 3,-34 8,-46 6,-13 13,-22 24,-28 10,-6 22,-9 36,-9 15,0 29,4 41,11 12,7 22,16 29,29 7,12 10,27 10,43 0,17 -3,32 -10,44 -7,13 -17,22 -29,29 -12,7 -26,10 -41,10zm-95 56l0 -219 45 0 0 33 -1 48 3 47 0 91 -47 0zm87 -94c8,0 15,-2 21,-5 6,-4 11,-9 15,-16 3,-7 5,-14 5,-24 0,-9 -2,-17 -5,-24 -4,-6 -9,-11 -15,-15 -6,-3 -13,-5 -21,-5 -8,0 -15,2 -21,5 -6,4 -11,9 -15,15 -3,7 -5,15 -5,24 0,10 2,17 5,24 4,7 9,12 15,16 6,3 13,5 21,5zm215 38c-14,0 -26,-3 -36,-9 -10,-6 -18,-15 -24,-27 -5,-12 -8,-28 -8,-47 0,-19 2,-34 8,-46 5,-13 13,-22 23,-28 10,-6 23,-9 37,-9 15,0 29,4 41,11 12,7 21,16 28,29 7,12 11,27 11,43 0,17 -4,32 -11,44 -7,13 -16,22 -28,29 -12,7 -26,10 -41,10zm-95 56l0 -219 44 0 0 33 -1 48 3 47 0 91 -46 0zm87 -94c7,0 14,-2 20,-5 7,-4 11,-9 15,-16 4,-7 6,-14 6,-24 0,-9 -2,-17 -6,-24 -4,-6 -8,-11 -15,-15 -6,-3 -13,-5 -20,-5 -8,0 -15,2 -21,5 -7,4 -11,9 -15,15 -4,7 -5,15 -5,24 0,10 1,17 5,24 4,7 8,12 15,16 6,3 13,5 21,5zm119 36l0 -222 47 0 0 222 -47 0zm90 0l0 -161 47 0 0 161 -47 0zm24 -184c-9,0 -16,-2 -21,-7 -6,-5 -9,-11 -9,-19 0,-7 3,-13 9,-18 5,-5 12,-8 21,-8 8,0 15,3 20,7 6,5 9,11 9,18 0,8 -3,15 -8,20 -6,5 -13,7 -21,7z"/>
   <path class="fil1" d="M6660 2905c-17,0 -33,-3 -46,-10 -14,-7 -24,-17 -32,-30 -8,-12 -12,-27 -12,-43 0,-16 4,-30 12,-43 8,-12 18,-22 32,-29 13,-7 29,-11 46,-11 17,0 32,4 44,11 13,7 22,17 28,30l-36 20c-4,-8 -9,-13 -16,-17 -6,-3 -13,-5 -20,-5 -8,0 -15,2 -22,5 -6,4 -11,9 -15,15 -4,7 -5,15 -5,24 0,10 1,18 5,24 4,7 9,12 15,16 7,3 14,5 22,5 7,0 14,-2 20,-5 7,-4 12,-9 16,-17l36 20c-6,13 -15,23 -28,30 -12,7 -27,10 -44,10zm198 -2l0 -32 -3 -6 0 -57c0,-10 -3,-17 -9,-23 -6,-6 -16,-8 -28,-8 -9,0 -17,1 -25,4 -9,2 -16,6 -22,11l-16 -33c8,-6 19,-11 31,-14 13,-4 25,-6 38,-6 25,0 44,6 57,18 14,11 21,29 21,54l0 92 -44 0zm-49 2c-13,0 -23,-2 -32,-6 -9,-4 -16,-10 -21,-18 -5,-7 -7,-15 -7,-25 0,-9 2,-17 7,-25 4,-7 12,-12 22,-17 10,-4 23,-6 40,-6l43 0 0 28 -38 0c-11,0 -19,1 -23,5 -4,4 -6,8 -6,13 0,6 3,11 7,15 5,3 11,5 20,5 7,0 14,-2 20,-6 7,-3 11,-9 14,-16l7 22c-3,10 -9,18 -18,23 -9,6 -21,8 -35,8zm201 0c-19,0 -34,-5 -45,-14 -10,-10 -15,-24 -15,-44l0 -141 46 0 0 141c0,7 2,12 6,16 3,3 8,5 14,5 8,0 14,-2 19,-6l13 33c-5,3 -11,6 -17,8 -7,1 -14,2 -21,2zm-85 -124l0 -36 111 0 0 36 -111 0zm149 122l0 -161 47 0 0 161 -47 0zm23 -184c-8,0 -15,-2 -21,-7 -5,-5 -8,-11 -8,-19 0,-7 3,-13 8,-18 6,-5 13,-8 21,-8 9,0 16,3 21,7 6,5 8,11 8,18 0,8 -2,15 -7,20 -6,5 -13,7 -22,7zm144 186c-17,0 -33,-3 -46,-11 -13,-7 -24,-17 -31,-29 -8,-12 -12,-27 -12,-43 0,-16 4,-30 12,-43 7,-12 18,-22 31,-29 13,-7 29,-11 46,-11 17,0 32,4 45,11 14,7 24,17 32,29 7,13 11,27 11,43 0,16 -4,31 -11,43 -8,12 -18,22 -32,29 -13,8 -28,11 -45,11zm0 -38c8,0 15,-2 21,-5 6,-4 11,-9 14,-16 4,-7 6,-14 6,-24 0,-9 -2,-17 -6,-24 -3,-6 -8,-11 -14,-15 -6,-3 -13,-5 -21,-5 -8,0 -15,2 -21,5 -6,4 -11,9 -15,15 -4,7 -6,15 -6,24 0,10 2,17 6,24 4,7 9,12 15,16 6,3 13,5 21,5zm217 -128c13,0 24,3 34,8 10,5 18,13 24,23 6,11 9,24 9,41l0 92 -47 0 0 -85c0,-13 -3,-23 -8,-29 -6,-6 -14,-9 -24,-9 -8,0 -14,1 -20,4 -6,4 -11,8 -14,15 -3,6 -5,14 -5,24l0 80 -47 0 0 -161 45 0 0 44 -9 -13c6,-11 15,-19 25,-25 11,-6 23,-9 37,-9z"/>
  </g>
  <g id="_556892440">
   <path class="fil2" d="M3128 2085l0 -1700 330 0 0 1700 -330 0zm1058 0l0 -1700 752 0c79,0 151,15 217,47 66,32 124,75 173,130 48,54 86,115 112,182 26,67 40,135 40,206 0,72 -13,141 -37,207 -25,66 -61,124 -107,173 -46,50 -101,88 -163,115l388 640 -364 0 -350 -570 -330 0 0 570 -331 0zm331 -860l414 0c42,0 78,-12 110,-37 32,-25 58,-58 77,-99 19,-42 29,-88 29,-139 0,-55 -11,-102 -34,-143 -22,-41 -50,-73 -85,-97 -34,-24 -71,-36 -111,-36l-400 0 0 551zm2098 -840l335 0 625 1700 -340 0 -141 -424 -625 0 -142 424 -340 0 628 -1700zm401 1044l-234 -702 -235 702 469 0z"/>
   <path class="fil3 str0" d="M2035 841c42,53 75,114 98,182 23,68 35,138 35,212 0,68 -11,137 -33,204 -11,35 -25,68 -41,100l229 228c47,-63 85,-131 115,-205 42,-103 62,-211 62,-323 0,-108 -20,-213 -59,-316 -40,-102 -96,-194 -168,-277 -72,-83 -159,-150 -260,-199 -101,-50 -214,-74 -336,-74 -122,0 -233,23 -335,70 -101,47 -189,111 -263,192 -74,80 -132,172 -175,275 -42,103 -63,211 -63,325 0,108 20,214 60,317 40,103 96,196 168,278 73,82 160,147 262,195 101,48 214,72 338,72 120,0 231,-23 332,-70 28,-13 56,-27 82,-42l-219 -219c-57,26 -121,39 -192,39 -78,0 -148,-16 -210,-47 -61,-31 -113,-73 -155,-127 -43,-53 -75,-115 -97,-183 -23,-69 -34,-140 -34,-213 0,-71 11,-139 32,-206 22,-67 53,-128 95,-182 41,-55 93,-98 154,-131 62,-33 133,-49 215,-49 76,0 145,16 207,47 61,31 113,73 156,127z"/>
   <path class="fil4" d="M1736 1637l128 129c7,-3 14,-7 21,-10 62,-33 114,-77 156,-132 20,-27 38,-55 53,-85l-130 -130 -228 228z"/>
   <path class="fil4" d="M2265 1837c-54,58 -115,107 -182,148l322 321 228 -228 -310 -311c-18,24 -38,48 -58,70z"/>
  </g>
 </g>
</svg>
